<svg xmlns="http://www.w3.org/2000/svg" width="184" height="39" viewBox="0 0 184 39"><g fill="#FFF" fill-rule="evenodd"><path d="M43.91 2.478c2.093 0 3.668.54 4.722 1.62.873.871 1.31 1.997 1.31 3.377 0 1.38-.437 2.507-1.31 3.377-1.054 1.08-2.629 1.62-4.722 1.62h-4.114v4.817a.959.959 0 0 1-.305.72 1.025 1.025 0 0 1-.734.293.99.99 0 0 1-.724-.293.977.977 0 0 1-.293-.72V3.513c0-.284.098-.529.293-.731a.969.969 0 0 1 .724-.304h5.153zm-.204 8.058c1.55 0 2.673-.33 3.366-.99.543-.51.815-1.2.815-2.07 0-1.396-.701-2.326-2.102-2.792-.543-.18-1.236-.27-2.079-.27h-3.91v6.122h3.91zm21.445 6.753a.973.973 0 0 1-.295.72 1.012 1.012 0 0 1-.744.293c-.302 0-.546-.094-.735-.281-.188-.188-.282-.432-.282-.732v-.675c0-1.216-.136-2.108-.406-2.679a3.495 3.495 0 0 0-1.108-1.362c-.467-.337-1.13-.506-1.99-.506h-4.677v5.222a.959.959 0 0 1-.306.72 1.025 1.025 0 0 1-.734.293.986.986 0 0 1-.722-.293.973.973 0 0 1-.294-.72V3.513c0-.284.097-.529.294-.731a.965.965 0 0 1 .722-.304h5.266c2.064 0 3.623.436 4.678 1.306.979.825 1.468 1.913 1.468 3.264 0 .87-.244 1.68-.734 2.43-.49.75-1.231 1.298-2.226 1.643 1.085.285 1.868 1.066 2.35 2.342.317.855.475 1.786.475 2.79v1.036zm-6.147-7.158c1.266 0 2.287-.247 3.062-.743.776-.495 1.164-1.223 1.164-2.183 0-.9-.3-1.576-.904-2.026-.722-.51-1.868-.765-3.434-.765h-3.978v5.717h4.09zm20.71 6.427a.93.93 0 0 1 .284.686c0 .27-.094.495-.283.675a.96.96 0 0 1-.69.27h-9.06a.986.986 0 0 1-.724-.292.977.977 0 0 1-.293-.72V3.512c0-.284.097-.529.293-.731a.968.968 0 0 1 .723-.304h9.062c.271 0 .5.094.689.281a.933.933 0 0 1 .283.687c0 .27-.094.495-.283.676a.96.96 0 0 1-.69.27h-8.021v4.974h7.209c.271 0 .5.094.688.281a.932.932 0 0 1 .282.687c0 .27-.093.495-.282.675a.957.957 0 0 1-.688.27h-7.21v4.997h8.023c.271 0 .5.094.689.282zm9.865-.304l5.31-13.19c.197-.465.486-.698.872-.698.384 0 .666.097.846.292.181.195.272.406.272.63 0 .225-.023.39-.068.496l-5.582 13.482c-.317.69-.783 1.036-1.401 1.036h-.497c-.617 0-1.085-.346-1.401-1.036L82.348 3.784c-.045-.105-.067-.27-.067-.496 0-.224.09-.435.27-.63a.886.886 0 0 1 .678-.292c.498 0 .844.233 1.04.698l5.31 13.19zm20.237.304a.93.93 0 0 1 .282.686c0 .27-.094.495-.282.675a.961.961 0 0 1-.689.27h-9.063a.981.981 0 0 1-.722-.292.973.973 0 0 1-.295-.72V3.512c0-.284.098-.529.295-.731a.963.963 0 0 1 .722-.304h9.063c.27 0 .5.094.689.281a.933.933 0 0 1 .282.687c0 .27-.094.495-.282.676a.962.962 0 0 1-.689.27h-8.022v4.974h7.208c.27 0 .501.094.69.281a.937.937 0 0 1 .282.687.9.9 0 0 1-.282.675.96.96 0 0 1-.69.27h-7.208v4.997h8.022c.27 0 .5.094.689.282zm16.372-14.192c.287 0 .531.1.734.303a.996.996 0 0 1 .306.732v13.438c0 .405-.148.75-.44 1.035a1.46 1.46 0 0 1-1.052.428h-.272c-.496 0-.896-.203-1.197-.608l-8.746-12.582v12.177a.958.958 0 0 1-.305.72 1.026 1.026 0 0 1-.734.293.984.984 0 0 1-.722-.293.973.973 0 0 1-.295-.72V3.851c0-.405.143-.754.43-1.046a1.401 1.401 0 0 1 1.039-.44h.294c.467 0 .882.226 1.243.676l8.7 12.515V3.4c0-.285.098-.53.293-.732a.969.969 0 0 1 .724-.303zm16.44.393a.938.938 0 0 1 .283.687c0 .27-.095.495-.283.676a.962.962 0 0 1-.688.27h-4.589v12.897a.958.958 0 0 1-.305.72 1.026 1.026 0 0 1-.734.293.984.984 0 0 1-.722-.293.973.973 0 0 1-.294-.72V4.391h-4.61a.923.923 0 0 1-.95-.945c0-.27.09-.499.271-.687a.904.904 0 0 1 .679-.28h11.254c.27 0 .5.093.688.28zm3.808-.393c.286 0 .53.1.734.303a.996.996 0 0 1 .305.732v13.888a.959.959 0 0 1-.305.72 1.025 1.025 0 0 1-.734.293.986.986 0 0 1-.723-.293.973.973 0 0 1-.294-.72V3.401c0-.285.097-.53.294-.732a.965.965 0 0 1 .723-.303zm12.406-.113c2.38 0 4.293.758 5.74 2.274 1.402 1.485 2.132 3.42 2.192 5.807-.06 2.386-.79 4.321-2.192 5.807-1.447 1.516-3.36 2.274-5.74 2.274-2.395 0-4.31-.758-5.74-2.274-1.432-1.5-2.162-3.436-2.191-5.807.029-2.371.76-4.307 2.19-5.807 1.432-1.516 3.346-2.274 5.74-2.274zm0 14.248c1.838 0 3.284-.592 4.34-1.778 1.024-1.14 1.536-2.604 1.536-4.39 0-1.785-.512-3.248-1.537-4.389-1.055-1.185-2.501-1.778-4.34-1.778-1.837 0-3.284.593-4.338 1.778-1.024 1.14-1.537 2.604-1.537 4.39 0 1.785.513 3.25 1.537 4.389 1.054 1.186 2.5 1.778 4.339 1.778zm24.066-14.135c.287 0 .531.1.736.303a.997.997 0 0 1 .305.732v13.438c0 .405-.147.75-.441 1.035a1.454 1.454 0 0 1-1.05.428h-.272a1.42 1.42 0 0 1-1.198-.608l-8.746-12.582v12.177a.958.958 0 0 1-.304.72 1.024 1.024 0 0 1-.735.293.987.987 0 0 1-.723-.293.978.978 0 0 1-.293-.72V3.851c0-.405.141-.754.429-1.046a1.4 1.4 0 0 1 1.04-.44h.292c.467 0 .882.226 1.243.676l8.7 12.515V3.4c0-.285.098-.53.295-.732a.964.964 0 0 1 .722-.303zM43.91 23.064c2.093 0 3.668.54 4.722 1.62.873.87 1.31 1.996 1.31 3.377 0 1.38-.437 2.506-1.31 3.376-1.054 1.08-2.629 1.62-4.722 1.62h-4.114v4.818a.959.959 0 0 1-.305.72 1.024 1.024 0 0 1-.734.292.989.989 0 0 1-.724-.292.977.977 0 0 1-.293-.72V24.099c0-.284.098-.529.293-.732a.969.969 0 0 1 .724-.303h5.153zm-.204 8.058c1.55 0 2.673-.33 3.366-.99.543-.51.815-1.201.815-2.071 0-1.396-.701-2.326-2.102-2.791-.543-.18-1.236-.27-2.079-.27h-3.91v6.122h3.91zm16.135-8.283c2.38 0 4.293.758 5.74 2.273 1.4 1.486 2.13 3.421 2.192 5.808-.061 2.385-.792 4.321-2.192 5.807C64.134 38.242 62.22 39 59.84 39c-2.397 0-4.31-.758-5.74-2.273-1.432-1.5-2.162-3.436-2.192-5.807.03-2.371.76-4.307 2.191-5.808 1.431-1.515 3.344-2.273 5.74-2.273zm0 14.248c1.837 0 3.283-.593 4.34-1.778 1.022-1.14 1.535-2.604 1.535-4.39 0-1.785-.513-3.249-1.536-4.389-1.056-1.185-2.502-1.778-4.34-1.778s-3.284.593-4.338 1.778c-1.024 1.14-1.537 2.604-1.537 4.39 0 1.785.513 3.249 1.537 4.389 1.054 1.185 2.5 1.778 4.339 1.778zM72.2 22.95c.286 0 .531.101.736.304a.996.996 0 0 1 .304.731v13.889a.958.958 0 0 1-.304.72 1.03 1.03 0 0 1-.736.292.983.983 0 0 1-.722-.292.973.973 0 0 1-.294-.72V23.986c0-.284.097-.529.294-.731a.963.963 0 0 1 .722-.304zm18.148 0c.285 0 .53.101.733.304a.994.994 0 0 1 .306.731v13.438c0 .405-.147.751-.442 1.036a1.455 1.455 0 0 1-1.05.427h-.272c-.497 0-.896-.202-1.197-.607l-8.745-12.583v12.178a.958.958 0 0 1-.306.72 1.023 1.023 0 0 1-.734.292.989.989 0 0 1-.724-.292.978.978 0 0 1-.293-.72V24.437c0-.405.144-.754.43-1.047.286-.292.632-.439 1.04-.439h.292c.467 0 .881.225 1.244.676l8.7 12.514V23.986c0-.284.098-.529.293-.731a.967.967 0 0 1 .725-.304zm16.44.394a.938.938 0 0 1 .282.687.9.9 0 0 1-.282.675.964.964 0 0 1-.69.27h-4.587v12.898a.958.958 0 0 1-.306.72 1.023 1.023 0 0 1-.734.292.986.986 0 0 1-.724-.292.978.978 0 0 1-.293-.72V24.977h-4.61a.92.92 0 0 1-.677-.27.91.91 0 0 1-.272-.675c0-.27.09-.5.272-.687a.902.902 0 0 1 .676-.281h11.254c.272 0 .502.093.69.28zM16.711 12.211l1.259 1.254 9.238 9.209c1.85-2.12 2.778-5.086 2.778-8.905 0-4.609-1.312-8.025-3.937-10.25C23.425 1.295 19.238.182 13.49.182H.26V37.5h8.356V27.09h4.98c3.973 0 7.21-.554 9.72-1.654L13.347 15.5v4.515H8.636V7.514h12.543v4.697H16.71zm-3.605-1.918c0 .703-.571 1.272-1.276 1.272-.704 0-1.275-.57-1.275-1.272 0-.701.571-1.271 1.275-1.271.705 0 1.276.57 1.276 1.27z"/></g></svg>